<svg id="Calque_1" xmlns="http://www.w3.org/2000/svg" viewBox="0 0 101.4 28"><style>.st0{fill:#fff}</style><path class="st0" d="M23.4 15.3c0 .7.3 1.6 1 1.6.9 0 .9-1.2.9-2v-1.4c-1.3-.1-1.9.9-1.9 1.8m6.8-2.5c0 3.1.6 3.6 1.5 3.3l.4.5c-2.3 2.3-3.7 3.5-4 3.5-.8 0-1.3-.8-2-1.7 0 0-1.5 1.7-3.7 1.7-1.9 0-3.7-1.3-3.7-4.1 0-2 1.9-4.6 6.5-4.6V9.9c0-.8.2-2.5-1.5-2.5-.5 0-1.2.3-1.3 1 .3.3.4.6.4 1 0 .7-.5 1.3-1.6 1.3s-1.8-.9-1.8-1.8c0-2.4 2.8-3.9 6-3.9 1.8 0 4.8.6 4.8 4.9v2.9z"/><path class="st0" d="M6.8 17.7v2.4c0 2.2 1 2.9 1.6 3.1v1.1c-.7.4-1.7.7-4.4.7-2.4 0-3.4-.3-4-.7v-1.1c.7-.2 1.1-.8 1.4-3.2.2-1.6.2-3.4.2-5 0-1.7 0-7-.2-8.7C1.1 3.4.9 3 0 2.6v-1c1.3-.4 2.5-.5 3.9-.5s2.7.1 4.1.5v1.1c-.5 0-1.2-.1-1.2 1.5v9h.3s5-8 5.3-8.6c.4-1.2-.4-2-.4-2v-1c1.4-.3 2.6-.5 4-.5.9 0 2.6.1 3.8.5v1.1c-1.7 0-2.7 1.5-2.7 1.5-.4.5-6 9.2-6.2 9.5 6.3 2.6 7.6 10.1 11.7 10.1 1.1 0 1.7-.4 1.7-.4l.5.5c-.3 2-2.6 4.3-5.3 4.3-6.3-.2-8.2-10.5-12.7-10.5M65.7 4.4c0 .8.5 1.6 1.7 1.6s1.8-1.1 1.8-2.3c0-1.9-1.7-3.7-4.7-3.7-2.4 0-4.9 1.2-4.9 4.6 0 1.7.4 2.9.4 4.4 0 1-.9 1.2-1.8 1.2v3h2l.3 9.4c0 1.9-.7 2.5-1.6 2.5-.4 0-.7-.1-1-.4l-.3.6c.7 1.2 2.4 2.4 4.3 2.4 2.3 0 4.4-1.4 4.4-4.4 0-2.5-.9-8.1-1-10.1H68V10l-3.1.1c0-.9-.4-5.3-.4-6.5 0-.8.5-1.2 1.1-1.2.6 0 .8.5.9.7-.4.1-.8.6-.8 1.3"/><path class="st0" d="M75.2 13.4c0 1.2.1 2.9 1.3 2.9 1.6 0 1.4-2.7 1.4-4.1 0-.9 0-2.6-.1-3.5-.1-.6-.5-.8-.9-.9l-.4-.8c2.1-1.3 4.7-2 5.6-2 .8 0 .9.6.9 1.4v8.8c0 1.5.5 1.8 1 1.9l.3.7c-.3.5-4.8 2.3-5.3 2.3-.6 0-.6-.5-1-1.7-.4.3-2 1.7-3.9 1.7-4.7 0-3.9-4.3-3.9-8.6 0-2.8-.3-3.3-1.1-3.4L68.7 7c2.6-1.4 4.6-2 5.5-2 .6 0 1 .4 1 1.1v7.3zm16.7 1.4c0 3.6.3 3.8.9 3.9v.8c-1 .3-2.9.5-3.7.5-.7 0-2.7-.1-3.7-.4v-.8c.5.1 1.5-.1 1.5-2.6V10c0-1.8-.5-2.1-1-2.1l-.4-.9c3-1.7 4.9-1.9 5.5-1.9 1 0 .8 1.2.9 2.4C94 5.8 94.9 5 96.4 5c3.5 0 3.6 3.7 3.6 5.6v5c0 1.3-.1 3.2 1.5 3.1v.8c-.8.2-2.3.4-3.8.4-.7 0-2.5-.2-3.7-.5v-.8c.5-.1.9-.4.9-2.8v-2.7c0-1.9-.2-3.9-1.6-3.9-1.4 0-1.3 2-1.3 3.3v2.3zm-42.7.5c0 .7.3 1.6 1 1.6.9 0 .9-1.2.9-2v-1.4c-1.2-.1-1.9.9-1.9 1.8m6.8-2.5c0 3.1.6 3.6 1.5 3.3l.4.5c-2.3 2.3-3.7 3.5-4 3.5-.8 0-1.3-.8-2-1.7 0 0-1.4 1.7-3.7 1.7-1.9 0-3.7-1.3-3.7-4.1 0-2 1.9-4.6 6.5-4.6V9.9c0-.8.2-2.5-1.5-2.5-.5 0-1.2.3-1.3 1 .3.3.4.6.4 1 0 .7-.5 1.3-1.6 1.3s-1.8-.9-1.8-1.8c0-2.4 2.8-3.9 6-3.9 1.8-.1 4.8.6 4.8 4.9v2.9zm-22.1-1.9c0-2.4-.2-2.9-1-3l-.4-.9c2.7-1.6 4.8-2 5.3-2 .8 0 .8.5.9.8.1.5.2 1.4.2 1.6.9-1.2 1.7-2.6 3.4-2.6 1.4 0 2.2 1.1 2.2 2.2 0 1.5-1 2.5-2.2 2.5-1 0-1.6-.3-2-.4-.5 0-1 .3-1.4.8v5.8c0 1.4.2 3.1 1.5 2.9v.8c-.7.2-2.3.4-3.9.4-1 0-3.2-.1-4.1-.4v-.8c1 .2 1.5-.8 1.5-2.7v-5z"/></svg>